<?xml version="1.0" standalone="no"?>
<svg viewBox="0 0 200 200" xmlns="http://www.w3.org/2000/svg">
  <path fill="#FF0066" d="M38.9,-65.8C52.7,-59.3,67.9,-53.6,76.6,-42.8C85.4,-32,87.7,-16,87.2,-0.3C86.6,15.3,83.1,30.7,75.9,44.1C68.7,57.6,57.7,69.3,44.4,75.3C31.1,81.4,15.6,82,1.1,80.1C-13.4,78.2,-26.8,73.9,-40.2,67.9C-53.6,61.9,-67,54.2,-74.1,42.6C-81.3,30.9,-82.1,15.5,-82.4,-0.1C-82.6,-15.8,-82.3,-31.5,-76.6,-45.7C-71,-59.8,-60,-72.4,-46.3,-79C-32.7,-85.6,-16.3,-86.3,-1.9,-83C12.5,-79.7,25,-72.4,38.9,-65.8Z" transform="translate(100 100)" />
</svg>
